<svg width="17" height="17" viewBox="0 0 17 17" fill="none" xmlns="http://www.w3.org/2000/svg">
<path d="M4.00001 0L7.46411 4.5H0.535904L4.00001 0Z" fill="#FF9101"/>
<path d="M13 0L16.4641 4.5H9.5359L13 0Z" fill="#FF9101"/>
<path fill-rule="evenodd" clip-rule="evenodd" d="M4.68641 14.6316C3.63891 13.5453 3.00001 11.9721 3.00001 10H5.00001C5.00001 11.5279 5.4861 12.5797 6.1261 13.2434C6.77284 13.9141 7.63398 14.25 8.50001 14.25C9.36603 14.25 10.2272 13.9141 10.8739 13.2434C11.5139 12.5797 12 11.5279 12 10H14C14 11.9721 13.3611 13.5453 12.3136 14.6316C11.2728 15.7109 9.88398 16.25 8.50001 16.25C7.11603 16.25 5.72717 15.7109 4.68641 14.6316Z" fill="#FF9101"/>
<path fill-rule="evenodd" clip-rule="evenodd" d="M3.00001 10.5V4H5.00001V10.5H3.00001Z" fill="#FF9101"/>
<path fill-rule="evenodd" clip-rule="evenodd" d="M12 10.5V4H14V10.5H12Z" fill="#FF9101"/>
</svg>
