<svg width="16" height="16" viewBox="0 0 16 16" fill="none" xmlns="http://www.w3.org/2000/svg">
<path d="M4.00001 0L7.46411 3.75H0.535904L4.00001 0Z" fill="#47D682"/>
<path d="M12 0L15.4641 3.75H8.5359L12 0Z" fill="#47D682"/>
<path d="M10 14C10 15.1046 9.10458 16 8.00001 16C6.89544 16 6.00001 15.1046 6.00001 14C6.00001 12.8954 6.89544 12 8.00001 12C9.10458 12 10 12.8954 10 14Z" fill="#47D682"/>
<path fill-rule="evenodd" clip-rule="evenodd" d="M8.23925 9.94727C8.70965 10.7506 9.00133 11.7085 9.00001 13.001L7.00001 12.999C7.00099 12.0406 6.79323 11.4358 6.51339 10.9579C6.26426 10.5325 5.95818 10.1948 5.56097 9.75648C5.46399 9.64947 5.36157 9.53647 5.25323 9.41473C4.72447 8.82061 4.14031 8.09945 3.70283 7.05998C3.26609 6.02228 3.00023 4.72877 3.00201 2.99818L5.00201 3.00024C5.00045 4.52097 5.23324 5.5405 5.54622 6.28416C5.85846 7.02605 6.27508 7.55457 6.74723 8.08508C6.82447 8.17188 6.90628 8.26168 6.99104 8.35473C7.39877 8.80231 7.87475 9.32483 8.23925 9.94727Z" fill="#47D682"/>
<path fill-rule="evenodd" clip-rule="evenodd" d="M7.76121 9.94716C7.29053 10.7504 6.99868 11.7084 7 13.001L9 12.999C8.99902 12.0407 9.20686 11.436 9.48679 10.9583C9.73604 10.5329 10.0422 10.1953 10.4397 9.75708C10.5367 9.65009 10.6392 9.5371 10.7476 9.41538C11.2766 8.82137 11.8611 8.10029 12.2988 7.06084C12.7358 6.02315 13.0018 4.72962 13 2.99897L11 3.00103C11.0016 4.52171 10.7687 5.54112 10.4556 6.28463C10.1432 7.02639 9.7264 7.5548 9.25401 8.08523C9.17673 8.172 9.09488 8.26179 9.01008 8.35481C8.60215 8.80231 8.12591 9.32476 7.76121 9.94716Z" fill="#47D682"/>
</svg>
